<svg width="130" height="130" fill="none" xmlns="http://www.w3.org/2000/svg"><path fill-rule="evenodd" clip-rule="evenodd" d="M0 65v65h104.894v-12.664l1.206-.161c12.123-1.619 21.607-10.778 23.548-22.743 2.109-13.006-5.425-25.546-18.024-29.996-1.624-.574-3.218-.944-5.778-1.342l-.952-.148V0H0v65zm100.576-31.374c0 27.697-.025 29.315-.445 29.431-.244.068-1.016.2-1.714.292-2.665.356-6.14 1.535-8.583 2.913l-1.363.77H8.38v4.316h74.732l-1.21 1.415c-2.237 2.618-4.83 7.582-5.37 10.282l-.149.744H8.381v4.317h67.362l-.165.873c-.252 1.346.338 6.351 1.032 8.744 2.508 8.654 9.414 15.7 18.036 18.401 1.138.357 2.681.74 3.428.851.751.112-11.028.26-26.325.33l-27.684.127-.073 2.094-.074 2.095h56.658v4.317H4.318V4.317h96.258v29.309zm-92.195-.11v25.136H58.67V8.38H8.381v25.137zm46.163.063l-.065 20.884-20.89.065-20.89.065V12.695h41.91l-.065 20.884zm10.475-16.821v2.031H94.48v-4.062H65.02v2.03zm-33.526.279c-3.13.61-5.98 2.914-7.44 6.012-.726 1.539-.806 1.944-.81 4.119-.005 2.83.508 4.381 2.175 6.573 1.14 1.498 1.165 1.406-.655 2.356-.559.292-1.948 1.47-3.087 2.62-2.88 2.908-4.288 5.87-4.796 10.096l-.176 1.46h4.376v-.969c0-2.138 1.196-4.998 2.957-7.074 3.803-4.483 10.054-5.672 15.455-2.938 1.701.861 4.4 3.648 5.294 5.463.396.806.9 2.377 1.119 3.492l.4 2.026h3.983l-.01-1.079c-.01-1.266-.501-3.404-1.152-5.014-1.414-3.502-3.994-6.475-7.22-8.323a32.888 32.888 0 01-1.25-.739c-.06-.046.178-.397.53-.78 3.103-3.378 3.67-8.453 1.38-12.354-1.452-2.474-4.263-4.404-7.235-4.967-1.565-.297-2.235-.293-3.838.02zm4.408 4.386c2.968 1.24 4.608 4.72 3.622 7.688-1.786 5.375-9.03 5.96-11.493.93-2.092-4.277.814-8.956 5.567-8.964.808-.002 1.845.154 2.304.346zM65.02 33.516v2.03h29.46v-4.061H65.02v2.032zm0 16.886v2.16l14.667-.065 14.667-.065.074-2.095.074-2.095H65.019v2.16zm42.463 17.285c6.635 1.255 12.814 6.046 16.019 12.42.351.699.945 2.241 1.32 3.428.928 2.936 1.171 8.012.536 11.183-1.497 7.47-7.047 14.101-14.128 16.88-10.214 4.009-21.778.239-27.866-9.084-1.323-2.025-2.254-4.186-3.035-7.045-.346-1.264-.446-2.543-.429-5.46.02-3.375.102-4.067.714-6.093 2.329-7.702 7.902-13.395 15.391-15.722 3.688-1.147 7.264-1.304 11.478-.507zm-.241 19.214l-8.694 8.69-3.43-3.422-3.431-3.422-1.458 1.457-1.459 1.458 4.888 4.886 4.888 4.886 10.162-10.16 10.163-10.16-1.468-1.452-1.468-1.452-8.693 8.69zm-98.86 19.992v14.728h29.466l-.066-14.663-.065-14.663-14.667-.066-14.668-.065v14.729zm25.144.002v10.41H12.7v-20.82h20.826v10.41zm10.413-2.032v2.032h4.318v-4.063h-4.318v2.031zm8.382 0v2.032h4.317v-4.063H52.32v2.031zm8.381 0v2.032h4.318v-4.063H60.7v2.031z" fill="#19304C"/></svg>