<svg width="131" height="130" fill="none" xmlns="http://www.w3.org/2000/svg"><path fill-rule="evenodd" clip-rule="evenodd" d="M21.547.268c-.302.129-5.241 4.914-10.977 10.635L.14 21.305.07 74.978 0 128.65l.678.674.678.675 62.238-.07c60.019-.069 62.276-.089 63.264-.579 1.274-.629 2.501-1.858 3.148-3.15.465-.929.497-2.945.577-35.805.06-24.839-.003-35.226-.221-36.234-.419-1.937-1.562-3.411-3.323-4.285l-1.451-.72h-23.494V1.133l-.723-.566-.723-.566-39.276.017C39.77.027 21.85.14 21.547.268zm76.705 26.223v22.667H86.826c-7.877 0-11.756.098-12.489.317-1.423.424-3.077 1.877-3.779 3.32-.51 1.05-.573 1.672-.573 5.735v4.556h-26.01c-29.127 0-27.23-.133-27.23 1.912s-1.897 1.911 27.23 1.911h26.01v11.744h-26.01c-29.127 0-27.23-.134-27.23 1.911s-1.897 1.912 27.23 1.912h26.01v11.743H43.82c-24.573 0-26.192.03-26.595.478-.869.967-.618 2.525.488 3.026.523.237 7.369.32 26.49.32h25.783v13.211c0 7.266.077 13.595.172 14.065l.171.853H3.846V24.032h9.652c8.597 0 9.708-.049 10.155-.451.468-.422.502-1.1.502-10.105V3.823h74.098v22.668zm-77.94-12.973v6.691H6.732l6.72-6.69c3.695-3.68 6.75-6.692 6.79-6.692.038 0 .07 3.011.07 6.691zm29.365 5.88c0 .456-.154.872-.343.926-2.13.608-3.235 1.204-4.365 2.354-3.315 3.372-1.943 7.952 2.856 9.53l1.852.608v2.982c0 2.207-.09 2.98-.343 2.976-.574-.01-2.74-1.07-3.745-1.833l-.947-.719-1.05 1.178c-.578.647-1.05 1.315-1.05 1.484 0 .358 2.24 1.912 3.43 2.38.453.177 1.44.467 2.196.645 1.313.31 1.375.366 1.457 1.328l.085 1.005h1.356c1.354 0 1.355-.001 1.355-.912 0-.878.056-.925 1.441-1.236 3.907-.878 6.103-3.747 5.571-7.278-.168-1.117-.43-1.58-1.483-2.629-1.046-1.04-1.666-1.39-3.401-1.914l-2.122-.642-.003-2.924-.003-2.923 1.091.383c.6.21 1.555.696 2.122 1.08.567.384 1.115.698 1.216.698.102 0 .626-.611 1.165-1.358l.98-1.356-1.233-.845c-1.251-.856-3.911-1.903-4.835-1.903-.395 0-.506-.21-.506-.956v-.956H51.05c-1.344 0-1.372.016-1.372.827zm0 6.82c0 2.623-.064 2.721-1.352 2.058-1.677-.863-1.46-3.186.392-4.2.301-.165.641-.303.754-.308.113-.005.206 1.098.206 2.45zm4.507 7.992c1.296.735 1.734 1.76 1.207 2.83-.397.806-1.39 1.596-2.352 1.873-.611.175-.618.15-.618-2.572 0-3.072.033-3.111 1.763-2.13zm71.702 19.43l.77.66.073 34.775c.054 25.82-.009 34.972-.245 35.539-.678 1.636.44 1.573-26.604 1.494l-24.728-.073-.662-.766-.663-.766V54.578l.803-.798.802-.799h49.684l.77.66zm-47.493 3.73l-.724.567v17.07l.636.594.635.594h21.289c20.552 0 21.312-.018 21.937-.522l.648-.522V57.849l-.648-.522c-.625-.504-1.383-.522-21.849-.522-21.033 0-21.207.004-21.924.566zm40.716 9.13v5.871H81.512V60.628h37.597V66.5zM78.393 80.584l-.724.566v4.623c0 6.157-.484 5.715 6.265 5.715 6.778 0 6.36.375 6.36-5.697 0-4.341-.014-4.446-.674-5.102-.665-.662-.736-.67-5.59-.67-4.556 0-4.967.04-5.637.565zm16.142.105c-.659.655-.674.766-.674 5.015 0 3.982.048 4.405.57 5.065l.568.72h5.194c6.782 0 6.292.445 6.292-5.725 0-6.158.448-5.746-6.239-5.746-4.983 0-5.045.007-5.711.67zm16.341-.125c-.507.505-.549.91-.549 5.31 0 4.613.02 4.778.61 5.19.5.347 1.542.424 5.744.424h5.133l.586-.742c.554-.7.582-.99.5-5.213-.113-5.894.329-5.515-6.428-5.515-4.681 0-5.087.04-5.596.546zm-24.425 5.19v1.91h-4.94v-3.823h4.94v1.912zm16.192 0v1.91h-4.94v-3.823h4.94v1.912zm16.466 0v1.91h-4.939v-3.823h4.939v1.912zM78.36 95.964c-.681.678-.69.747-.69 5.145 0 3.593.082 4.576.427 5.065.416.592.56.607 5.763.607 6.93 0 6.434.43 6.434-5.568 0-6.152.431-5.741-6.146-5.85l-5.097-.086-.691.687zm16.663-.37c-.962.385-1.162 1.35-1.162 5.624 0 3.821.18 4.854.933 5.354.166.11 2.66.202 5.543.205 4.731.004 5.284-.045 5.694-.496.385-.423.454-1.207.454-5.169v-4.67l-.723-.565c-.67-.525-1.069-.565-5.42-.55-2.583.01-4.977.13-5.319.267zm16.028.283l-.724.566v24.773l.724.565c.666.522 1.084.567 5.338.567 4.927 0 5.752-.168 6.258-1.272.208-.455.304-4.348.304-12.273 0-12.51-.047-12.949-1.429-13.317-.346-.093-2.681-.17-5.189-.171-4.2-.004-4.616.04-5.282.562zm-24.6 5.169v1.912h-4.94v-3.824h4.94v1.912zm16.192 0v1.912h-4.94v-1.73c0-.952.083-1.812.183-1.912.1-.1 1.212-.182 2.47-.182h2.287v1.912zm16.329 7.783v9.559l-2.401.079-2.401.078V99.114l2.401.079 2.401.079v9.558zm-101.807 1.493c-.66.726-.616 1.847.102 2.562l.59.588h16.98c16.31 0 17-.021 17.556-.52.726-.654.766-2.093.075-2.715-.455-.411-2.079-.452-17.658-.452-16.712 0-17.17.014-17.645.537zm60.932 1.162c-.344.489-.427 1.468-.427 5.023 0 6.113-.454 5.704 6.311 5.704 6.771 0 6.313.419 6.313-5.765 0-5.999.497-5.569-6.434-5.569-5.203 0-5.347.015-5.763.607zm16.47-.178c-.671.668-.753 1.388-.657 5.807.075 3.517.16 4.196.578 4.611.427.425 1.13.498 5.5.572 4.765.08 5.046.056 5.753-.498l.744-.582v-4.718c0-4.223-.052-4.764-.502-5.169-.731-.658-10.757-.679-11.416-.023zm-8.115 5.306v1.912h-4.94v-3.823h4.94v1.911zm16.191.011v1.922l-2.401-.078-2.401-.079-.082-1.844-.08-1.843h4.964v1.922z" fill="#19304C"/></svg>