<svg width="132" height="130" fill="none" xmlns="http://www.w3.org/2000/svg"><path fill-rule="evenodd" clip-rule="evenodd" d="M74.72.633l-.632.633V20.12H39.92c-38.44 0-35.95-.125-37.974 1.905C-.155 24.13 0 20.623.004 65.884l.002 40.257.609 1.29c.719 1.522 1.946 2.76 3.373 3.404.959.433 2.433.47 21.545.539l20.515.075v5.396H40.39c-4.96 0-5.817.061-6.96.497-2.873 1.094-4.924 3.813-5.284 7.004l-.173 1.527H26.09c-2.15 0-3.015.304-3.423 1.201-.44.968-.344 1.601.346 2.293l.631.633h32.918c18.105 0 33.106-.072 33.335-.16.469-.181 1.169-1.402 1.169-2.039 0-.231-.338-.759-.752-1.174-.714-.716-.863-.754-2.958-.754h-2.207v-1.28c0-2.827-1.831-5.667-4.506-6.986-1.222-.603-1.564-.639-7.327-.762l-6.045-.129-.074-2.634-.073-2.633 20.653-.075 20.653-.074 1.205-.596c.663-.327 1.612-1.046 2.108-1.597 1.7-1.886 1.703-1.922 1.703-19.253V74.306l8.512-.075 8.511-.074.621-.724.621-.724V1.266l-.632-.633-.631-.633H75.35l-.63.633zm52.875 36.51v33.016H78.204V4.127h49.391v33.016zM90.183 11.857l-3.37 3.345-.688-1.227c-.907-1.62-1.58-2.196-2.563-2.196-.935 0-2.014 1.057-2.014 1.972 0 .684 2.894 5.797 3.642 6.432.292.249.89.452 1.33.452.694 0 1.409-.61 5.374-4.586 4.287-4.3 4.574-4.647 4.574-5.546 0-1.264-.72-1.991-1.972-1.991-.865 0-1.225.279-4.313 3.345zm9.51 2.643c-.9.776-.957 2.037-.133 2.917l.599.639h19.999l.631-.634c.767-.768.825-1.908.14-2.756l-.491-.609-10.031-.072-10.032-.074-.683.59zm-9.26 11.294c-1.858 1.844-3.448 3.353-3.535 3.353-.086 0-.513-.633-.948-1.407-.85-1.51-1.404-1.946-2.468-1.946-.83 0-1.934 1.06-1.934 1.858 0 .704 2.807 5.804 3.581 6.506.298.27.896.491 1.328.491.678 0 1.433-.645 5.4-4.618 4.31-4.318 4.61-4.681 4.61-5.57 0-.72-.163-1.081-.677-1.486-1.292-1.02-1.717-.796-5.358 2.819zm-16.345-.258v1.29H41.066c-33.017 0-33.021 0-33.699.534l-.678.535v69.443l.56.597.56.597h97.686l.631-.633.632-.633v-22.98h2.572v15.489c0 17.329.058 16.756-1.737 17.255-1.338.373-100.394.375-101.732.002-1.894-.527-1.744 3.027-1.744-41.258 0-36.198.038-39.92.413-40.457.228-.326.662-.693.965-.815.303-.123 15.86-.23 34.572-.24l34.02-.016v1.29zm25.656 2.901c-.716.546-.948 1.54-.567 2.446.556 1.327 1.224 1.402 11.612 1.311l9.305-.08.663-.626c.861-.81.89-2.038.068-2.812-.59-.556-.681-.56-10.626-.56-7.628 0-10.133.076-10.455.322zM74.088 51.831v20.878l.62.724.621.724 13.656.07 13.657.072v20.106H10.805V30.952h63.283v20.879zM43.54 36.42l-.58.626V49.19c0 11.196.036 12.182.451 12.655.47.537 19.327 11.505 20.621 11.995 1.502.569 2.583-.82 3.73-4.787 2.66-9.207.187-18.886-6.563-25.68-4.125-4.15-10.01-7.014-15.28-7.434-1.668-.133-1.843-.097-2.38.482zm50.227.2c-.283.121-1.956 1.676-3.717 3.457l-3.202 3.236-.846-1.505c-1-1.779-1.947-2.336-3.135-1.843-.74.308-1.323 1.204-1.315 2.025.002.242.787 1.773 1.745 3.403 1.906 3.245 2.465 3.698 3.846 3.125.416-.173 2.684-2.26 5.04-4.637 3.986-4.021 4.285-4.39 4.285-5.273 0-.907-.686-1.982-1.265-1.982-.13 0-.39-.05-.579-.113-.189-.062-.574-.014-.857.107zm-57.373 1.05c-5.693.746-11.136 3.532-15.182 7.771-3.318 3.477-5.43 7.198-6.563 11.563-.793 3.056-.967 8.094-.386 11.187 1.84 9.803 8.833 17.516 18.537 20.445 2.12.641 2.693.701 6.817.718 3.947.016 4.77-.055 6.688-.58 2.535-.695 5.76-2.151 7.895-3.565 2.208-1.462 5.59-4.824 7.04-6.996 1.453-2.179 1.633-3.248.693-4.11-.319-.291-3.184-2.031-6.367-3.867a7342.29 7342.29 0 01-9.711-5.608l-3.923-2.272V38.91l-.752-.754c-.824-.826-1.592-.904-4.786-.485zm13.158 3.23c7.294 2.38 12.838 8.49 14.638 16.136.771 3.276.444 9.606-.592 11.463-.147.263-1.842-.605-6.879-3.524-3.676-2.13-7.35-4.242-8.163-4.692l-1.48-.819v-9.613c0-5.299.101-9.613.225-9.613s1.137.298 2.251.661zM37.816 52.044v10.258l-8.682 5.024c-4.775 2.763-8.85 5.024-9.056 5.024-.244 0-.636-.808-1.125-2.321-1.081-3.34-1.255-7.83-.44-11.366 1.106-4.8 4.163-9.627 7.892-12.462 3.042-2.314 7.952-4.358 10.575-4.402l.836-.014v10.259zm61.744-9.362c-.824.88-.767 2.14.132 2.916l.683.589 10.032-.073 10.031-.073.491-.61c.685-.847.627-1.987-.14-2.755l-.631-.633h-19.999l-.599.639zm-9.374 11.224l-3.4 3.352-.599-1.095c-.972-1.78-1.523-2.255-2.608-2.255-.736 0-1.091.16-1.498.68-.293.373-.533.926-.533 1.229 0 .553 2.741 5.535 3.52 6.398.252.278.78.463 1.327.463.833 0 1.288-.38 5.49-4.57 4.252-4.238 4.583-4.636 4.583-5.5 0-1.191-.855-2.053-2.036-2.053-.738 0-1.278.426-4.246 3.351zm10.003 2.31c-1.338.544-1.655 2.358-.585 3.356.546.511.854.526 10.656.526h10.094l.533-.68c.895-1.14.675-2.453-.514-3.07-.601-.311-2.365-.374-10.194-.36-5.207.009-9.702.112-9.99.229zm-51.258 14.96c9.948 5.76 9.27 4.908 6.273 7.896-4.202 4.188-9.3 6.291-15.276 6.302-6.198.01-11.075-2.018-15.578-6.478-1.254-1.241-2.238-2.38-2.187-2.533.136-.408 17.26-10.322 17.717-10.257.216.03 4.288 2.312 9.051 5.07zm-.147 30.213c-1.415 1.116-.464 3.592 1.38 3.592 1.844 0 2.795-2.476 1.38-3.592-.373-.294-.994-.535-1.38-.535-.387 0-1.008.241-1.38.535zm6.385.098c-1.032 1.034-.67 2.686.712 3.26.959.398 1.892.095 2.586-.84 1.457-1.962-1.553-4.17-3.298-2.42zm6.576.006c-1.348 1.44-.163 3.705 1.776 3.393 1.76-.282 2.418-2.166 1.189-3.399-.855-.857-2.159-.854-2.965.006zm1.281 12.649v2.713l-6.367-.069-6.367-.069-.073-2.644-.073-2.643h12.88v2.712zm16.145 7.346a3.89 3.89 0 011.861 3.29l.001 1.096H32.087l.161-1.183c.188-1.372.93-2.532 2.067-3.226.769-.471 1.643-.49 22.409-.49 21.109 0 21.627.012 22.447.513z" fill="#19304C"/></svg>