<svg width="146" height="143" fill="none" xmlns="http://www.w3.org/2000/svg"><path fill-rule="evenodd" clip-rule="evenodd" d="M55.483.17c-9.539.977-18.972 4.212-27.055 9.28-7.147 4.48-15.482 13.014-19.782 20.252-6.6 11.11-9.626 24.5-8.366 37.017 1.443 14.334 7.59 27.21 17.835 37.36 9.896 9.804 21.792 15.59 35.89 17.454 1.228.163 4.461.295 7.185.295 6.916 0 10.68-.543 18.167-2.623l4.185-1.163 2.235.729c3.6 1.173 5.448 1.472 9.083 1.469 4.966-.004 8.98-.937 13.206-3.071l1.398-.705 1.959 1.966 1.958 1.967-.833.866-.833.867 9.549 9.526C132.294 142.659 132.756 143 136.662 143c3.787 0 6.89-1.989 8.471-5.43 1.274-2.771 1.138-5.92-.367-8.492-.366-.626-4.968-5.418-10.226-10.651l-9.56-9.513-.804.767-.805.769-1.965-1.974-1.966-1.973 1.023-2.216c1.69-3.665 2.395-6.436 2.689-10.574.298-4.205-.793-9.814-2.6-13.368l-.763-1.5.713-2.743c1.504-5.788 1.748-7.947 1.743-15.394-.004-5.99-.093-7.427-.636-10.267-2.45-12.814-8.196-23.716-17.211-32.654-9.49-9.41-20.693-15.044-34.22-17.21C66.812.038 58.908-.18 55.483.17zm3.281 18.072v13.252l-2.211-.184c-3.252-.271-5.853-.7-9.06-1.491-2.733-.675-6.99-2.052-6.99-2.26 0-.055.522-1.414 1.16-3.02 2.558-6.429 6.129-12.109 9.614-15.291 2.431-2.22 5.67-4.144 7.13-4.236.281-.018.357 2.805.357 13.23zm7.88-12.267c4.675 2.344 8.76 7.1 12.207 14.208 2.28 4.703 3.196 7.266 2.706 7.58-2.024 1.304-13.018 3.65-17.157 3.662l-.785.002V18.208c0-15.207-.32-13.913 3.03-12.233zm-19.579.561c0 .07-.632.846-1.406 1.726-3.023 3.443-6.53 9.561-8.585 14.976l-.938 2.472-1.125-.572c-3.025-1.538-10.203-6.497-10.203-7.05 0-.294 2.755-2.42 5.422-4.186 4.308-2.852 8.431-4.834 13.554-6.517 2.973-.977 3.281-1.056 3.281-.849zm32.672 1.207c5.411 1.83 12.672 5.832 16.747 9.232l1.375 1.147-1.785 1.422c-3.206 2.554-9.472 6.404-9.731 5.98-.07-.115-.572-1.36-1.117-2.768-2.092-5.407-5.174-10.764-8.32-14.458-1.878-2.206-1.988-2.184 2.83-.555zm-56.78 15.109c2.452 1.973 6.617 4.717 9.386 6.185l2.39 1.266-.454 1.685c-.45 1.673-.461 1.686-1.805 2.007-5.945 1.421-8.448 8.545-4.702 13.38.533.688 1.501 1.571 2.15 1.962l1.18.71-.173 3.98c-.096 2.19-.224 4.14-.285 4.336-.086.277-2.937.355-12.994.355H4.767l.194-2.487c.794-10.175 4.946-20.96 11.245-29.21 1.515-1.985 4.65-5.544 4.884-5.544.088 0 .928.62 1.868 1.375zm79.946.074c6.872 7.32 12.136 17.863 13.902 27.846.538 3.038 1.004 7.412.825 7.733-.065.117-5.877.213-12.914.213H91.92l-.18-3.34c-.415-7.696-1.656-16.465-3.145-22.227-.381-1.476-.627-2.79-.546-2.921.081-.131 1.024-.678 2.094-1.215 2.234-1.12 8.165-5.045 9.853-6.52.628-.548 1.232-1.001 1.344-1.007.111-.006.815.641 1.563 1.438zM41.396 32.985c3.789 1.362 11.41 2.98 14.087 2.992.628.003 1.623.084 2.211.181l1.07.177v22.383H47.2c-9.41 0-11.593-.07-11.712-.381-.081-.21-.045-2.008.08-3.995l.227-3.615 1.689-.682c3.328-1.346 5.377-4.3 5.422-7.815.034-2.76-1.375-5.575-3.422-6.835-.956-.589-1.014-.704-.834-1.658.206-1.093.361-1.457.623-1.457.09 0 1.045.317 2.124.705zM84.067 35c1.46 5.728 2.52 13.109 2.844 19.81l.19 3.908H63.615V36.335l1.07-.177a16.94 16.94 0 012.211-.181c2.64-.011 10.014-1.57 13.982-2.955 1.099-.383 2.12-.666 2.27-.629.15.037.563 1.21.92 2.607zm-48 3.813c3.656 1.763 2.367 7.113-1.713 7.113-2.082 0-3.648-1.663-3.648-3.873 0-1.998 1.649-3.643 3.785-3.777.225-.014.934.227 1.576.537zM30.84 67.276c.331 7.048 1.47 15.115 2.974 21.059.383 1.514.696 2.882.696 3.04 0 .158-1.298 1.013-2.883 1.9-3.395 1.898-5.94 3.591-8.621 5.733l-1.945 1.555-1.622-1.785C11.161 89.667 5.934 77.738 4.968 65.75l-.201-2.49 12.945.074 12.946.074.182 3.867zm27.924 7.18v11.19l-2.497.194c-4.755.368-11.065 1.682-15.115 3.146-1.052.38-1.963.643-2.023.582-.2-.198-1.486-5.892-2.055-9.093-.682-3.842-1.314-9.415-1.571-13.868l-.193-3.34h23.454v11.19zm28.249-10.233c0 .88-.108.997-1.355 1.463-8.573 3.207-14.687 9.47-17.48 17.907-.64 1.934-.846 2.27-1.374 2.254-.342-.011-1.199-.043-1.905-.071l-1.284-.051V63.267h23.398v.956zm30.57-.823c.301.3-.989 10.1-1.329 10.1-.054 0-.844-.713-1.757-1.585-2.151-2.054-5.711-4.415-8.339-5.529-3.457-1.466-6.063-2.016-10.37-2.188-3.041-.122-3.924-.245-3.924-.545 0-.32 2.196-.386 12.793-.386 7.036 0 12.853.06 12.926.133zm-19.87 5.574c5.144.61 9.677 2.735 13.451 6.307 4.855 4.594 7.266 10.244 7.259 17.012-.008 9.732-5.994 18.37-15.123 21.825-5.774 2.186-13.278 1.839-18.664-.863-4.786-2.401-8.346-5.941-10.675-10.615-1.73-3.47-2.382-6.352-2.385-10.537-.006-6.557 2.472-12.286 7.282-16.838 4.234-4.007 9.422-6.172 15.717-6.56.313-.02 1.726.102 3.138.269zm-6.277 4.394c-2.486.535-6.715 2.584-8.418 4.078l-1.284 1.127 1.56 1.586c.858.872 1.675 1.586 1.817 1.586.141 0 .696-.384 1.233-.853 4.831-4.227 12.912-4.185 18.456.095l1.095.845 1.603-1.598 1.604-1.597-.701-.744c-1.16-1.231-4.554-3.17-6.939-3.965-2.865-.954-7.092-1.19-10.026-.56zm-32.672 30.286v13.38l-.642-.178c-.353-.098-1.595-.647-2.76-1.22-4.045-1.991-8.452-7.191-11.668-13.769-2.029-4.148-3.288-7.599-2.832-7.755.195-.066 1.06-.384 1.923-.707 3.413-1.276 9.301-2.451 14.695-2.934.628-.056 1.174-.123 1.213-.15.039-.026.071 5.973.071 13.333zm7.022-13.1l.887.004.157 3.056c.297 5.751 1.924 10.405 5.286 15.119l1.304 1.828-2.202 2.07c-2.035 1.913-4.888 3.644-6.961 4.223l-.642.18V90.207l.642.172c.353.094 1.041.173 1.529.175zM37.068 98.73c2.041 5.381 5.782 11.859 8.704 15.078.752.827 1.317 1.551 1.258 1.609-.222.218-6.775-2.093-9.393-3.314a59.932 59.932 0 01-12.143-7.575l-.828-.669 1.284-1.114c1.977-1.715 9.232-6.418 10.01-6.488.09-.008.589 1.105 1.108 2.473zm81.261 16.766l-1.634 1.629-1.704-1.68-1.704-1.679 1.63-1.634 1.629-1.633 1.709 1.684 1.709 1.684-1.635 1.629zm-40.886-1.245c.596.434.447.574-1.048.982l-1.06.289.614-.827c.7-.945.776-.967 1.494-.444zm55.41 9.069c4.259 4.261 7.886 8.026 8.06 8.367.173.342.315 1.22.315 1.952 0 3.555-3.633 5.764-6.788 4.128-.582-.302-4.46-3.948-8.617-8.101l-7.558-7.552 3.273-3.27c1.8-1.799 3.341-3.271 3.423-3.271.082 0 3.634 3.486 7.892 7.747z" fill="#19304C"/></svg>