<svg width="33" height="32" fill="none" xmlns="http://www.w3.org/2000/svg"><path fill-rule="evenodd" clip-rule="evenodd" d="M21.667 2.667H11a8 8 0 00-8 8v10.666a8 8 0 008 8h10.667a8 8 0 008-8V10.667a8 8 0 00-8-8zm-16 8A5.333 5.333 0 0111 5.332h10.667A5.333 5.333 0 0127 10.666v10.667a5.333 5.333 0 01-5.333 5.334H11a5.333 5.333 0 01-5.333-5.334V10.667zm10.666 12a6.667 6.667 0 110-13.334 6.667 6.667 0 010 13.333zm0-2.667a4 4 0 100-8 4 4 0 000 8zm8-10.667a1.333 1.333 0 11-2.666 0 1.333 1.333 0 012.666 0z" fill="#fff"/></svg>