<svg width="133" height="42" fill="none" xmlns="http://www.w3.org/2000/svg"><path d="M52.512 15.028c1.75 0 3.136.51 4.157 1.533 1.022 1.005 1.533 2.52 1.533 4.547v7.95h-3.247v-7.534c0-1.213-.269-2.122-.806-2.729-.537-.623-1.308-.935-2.312-.935-1.092 0-1.966.364-2.625 1.091-.658.71-.987 1.732-.987 3.066v7.041h-3.248v-7.534c0-1.213-.268-2.122-.805-2.729-.537-.623-1.308-.935-2.313-.935-1.108 0-1.992.355-2.65 1.065-.64.71-.961 1.741-.961 3.092v7.041H35V15.184h3.092v1.767a5.05 5.05 0 011.949-1.43c.78-.329 1.645-.493 2.598-.493 1.04 0 1.957.2 2.754.598a4.391 4.391 0 011.923 1.714c.571-.727 1.307-1.29 2.208-1.688.901-.416 1.897-.624 2.988-.624zM75.523 22.2c0 .224-.017.545-.052.96H64.584c.19 1.023.684 1.837 1.481 2.443.814.589 1.819.883 3.014.883 1.525 0 2.78-.502 3.768-1.507l1.74 2c-.623.746-1.411 1.309-2.364 1.69-.953.38-2.027.571-3.222.571-1.524 0-2.867-.303-4.027-.909-1.16-.606-2.061-1.446-2.702-2.52-.624-1.091-.936-2.321-.936-3.69 0-1.35.303-2.563.91-3.637a6.609 6.609 0 012.572-2.547c1.091-.606 2.321-.909 3.69-.909 1.35 0 2.555.303 3.611.91a6.135 6.135 0 012.495 2.52c.606 1.074.909 2.32.909 3.741zm-7.015-4.574c-1.04 0-1.923.312-2.65.936-.71.606-1.144 1.42-1.3 2.442h7.873c-.139-1.005-.563-1.819-1.273-2.442-.71-.624-1.594-.936-2.65-.936zM78.643 9.78h3.247v19.279h-3.247V9.778zm7.51 5.404h3.248v13.874h-3.248V15.184zm1.637-2.287c-.589 0-1.083-.181-1.48-.545a1.866 1.866 0 01-.599-1.403c0-.555.2-1.014.598-1.377.398-.381.892-.572 1.481-.572.589 0 1.083.182 1.481.546.398.346.598.788.598 1.325 0 .571-.2 1.056-.598 1.455-.381.38-.875.571-1.48.571zM99.9 29.24c-1.404 0-2.668-.303-3.794-.909a6.749 6.749 0 01-2.65-2.52c-.624-1.091-.936-2.321-.936-3.69 0-1.368.312-2.59.936-3.663a6.75 6.75 0 012.65-2.52c1.126-.607 2.39-.91 3.794-.91 1.42 0 2.693.303 3.819.91a6.563 6.563 0 012.624 2.52c.641 1.074.962 2.295.962 3.663 0 1.369-.321 2.599-.962 3.69a6.562 6.562 0 01-2.624 2.52c-1.126.606-2.399.91-3.82.91zm0-2.78c1.195 0 2.182-.398 2.962-1.195.779-.797 1.169-1.845 1.169-3.144 0-1.299-.39-2.347-1.169-3.144-.78-.797-1.767-1.195-2.962-1.195-1.196 0-2.183.398-2.962 1.195-.763.797-1.144 1.845-1.144 3.144 0 1.3.381 2.347 1.144 3.144.78.797 1.766 1.195 2.962 1.195zm13.602-9.25c.936-1.455 2.581-2.182 4.937-2.182v3.092a4.117 4.117 0 00-.754-.078c-1.264 0-2.251.372-2.962 1.117-.71.728-1.065 1.784-1.065 3.17v6.73h-3.248V15.183h3.092v2.027zm12.916-2.182c2.044 0 3.603.494 4.677 1.481 1.092.97 1.637 2.442 1.637 4.417v8.133h-3.066v-1.69c-.398.607-.97 1.075-1.715 1.404-.727.311-1.61.467-2.65.467-1.039 0-1.948-.173-2.728-.52-.779-.363-1.386-.857-1.819-1.48a3.883 3.883 0 01-.623-2.157c0-1.247.459-2.243 1.377-2.988.935-.762 2.399-1.143 4.391-1.143h3.585v-.208c0-.97-.294-1.715-.883-2.234-.572-.52-1.429-.78-2.572-.78a7.57 7.57 0 00-2.313.364c-.745.242-1.377.58-1.896 1.013l-1.274-2.364c.728-.554 1.603-.979 2.625-1.273a11.67 11.67 0 013.247-.442zm-.441 11.848c.814 0 1.533-.182 2.156-.546a3.081 3.081 0 001.351-1.61v-1.611h-3.351c-1.871 0-2.806.614-2.806 1.844 0 .59.233 1.057.701 1.403.468.347 1.117.52 1.949.52z" fill="#fff"/><path d="M0 2.26a2.26 2.26 0 014.519 0v1.506a2.26 2.26 0 01-4.519 0V2.259zm18.075 35.02a2.26 2.26 0 014.518 0v1.506a2.26 2.26 0 11-4.518 0v-1.507zM0 12.803a2.26 2.26 0 014.519 0v18.075a2.26 2.26 0 01-4.519 0V12.803zm9.037-6.401a2.26 2.26 0 014.52 0v9.413a2.26 2.26 0 11-4.52 0V6.402zm9.038 3.765a2.26 2.26 0 014.518 0v17.698a2.26 2.26 0 11-4.518 0V10.167z" fill="#E2349D"/></svg>