<svg width="500" height="500" fill="none" xmlns="http://www.w3.org/2000/svg"><path d="M444.748 73.63c.46-3.36-4.28-6.13-7.85-6.42-1.7-.14-3.47.12-5.08-.44-3.49-1.22-4.88-5.73-8.29-7.16-2.55-1.07-5.48-.12-7.95 1.12-2.47 1.24-4.91 2.81-7.67 2.98-2.4.15-5-.74-7.1.44-1.56.87-2.38 2.68-3.82 3.74-1.41 1.04-3.25 1.26-5 1.36-1.75.1-3.56.11-5.15.84-1.59.73-2.91 2.41-2.58 4.13l60.49-.59z" fill="#FAFAFA"/><path d="M331.227 302.8c.16-.02.46-.06.81-.12.3-.06.62-.13.92-.23.15-.05.29-.1.42-.17.19-.09.34-.2.44-.32.51-.65 9.53-21.42 10.2-23.42.11-.33.18-.64.24-.94l-.04.08c.2-1.67-.85-2.46-.85-2.46l-14.71 27.97h-3.04l-8.27.42c-.32.02-.58.28-.58.61v3.26c-6.23 3.26-16.67 8.89-17.92 9.71-.29.19-.55.39-.77.59l.09-.04c-1.19 1.19-.87 2.46-.87 2.46l23.96-10.62-.39 24.37-.04 2.74-.03 1.58-.01.51-.44 27.64h7.89l-1.63-27.66-.01-.2-.11-1.86-.2-3.34-1.46-24.86h.78l2.7-.04c.04.42.1.9.16 1.45-.35.31-1.6 1.48-1.64 2.18-.04.82 4.56 22.99 5.17 25.02.1.33.22.63.35.91l-.01-.09c.8 1.48 2.11 1.52 2.11 1.52l-4.09-31.21c.18-.17.29-.42.28-.7l-.08-1.69c.04-.19.07-.38.06-.58a1.86 1.86 0 00-.1-.48l-.03-.64c.22-.4.47-.85.74-1.35zm76.19 40.13c.13-.01.36-.04.62-.1.23-.04.48-.1.71-.18.11-.04.22-.08.32-.13.15-.07.27-.15.34-.25.39-.5 7.36-16.53 7.87-18.08.08-.26.14-.5.18-.73l-.03.06c.15-1.29-.65-1.9-.65-1.9l-11.36 21.59h-2.35l-6.38.33c-.25.01-.45.22-.45.47v2.52c-4.81 2.52-12.86 6.86-13.83 7.5-.22.15-.42.3-.6.46l.07-.03c-.92.92-.67 1.89-.67 1.89l18.5-8.19-.3 18.81-.03 2.11-.02 1.22-.01.39-.34 21.33h6.09l-1.26-21.35-.01-.15-.08-1.44-.15-2.58-1.13-19.19h.6l2.08-.03c.03.32.08.7.12 1.12-.27.24-1.24 1.14-1.26 1.69-.03.63 3.52 17.75 3.99 19.31.08.26.17.49.27.7l-.01-.07c.62 1.14 1.63 1.18 1.63 1.18l-3.16-24.09c.14-.13.23-.32.22-.54l-.06-1.31c.03-.14.05-.3.04-.45-.01-.13-.04-.25-.08-.37l-.02-.49c.19-.29.39-.64.59-1.03z" fill="#EBEBEB"/><path d="M400.309 390.01c-24.76-15.25-53.44-24.72-82.52-24.61-28.97.11-57.06 9.53-84.03 20.13-41.68 16.38-85.87 41.48-124.72 63.77h354.58c-17.57-23.17-38.55-44.04-63.31-59.29z" fill="#EBEBEB"/><path d="M33.508 449.3s46.33-47.78 153.86-57.61c107.53-9.83 265.74 57.61 265.74 57.61h-419.6z" fill="#F5F5F5"/><path d="M375.239 115.3c.96-6.95-8.85-12.66-16.21-13.25-3.51-.28-7.16.25-10.49-.91-7.21-2.51-10.09-11.83-17.13-14.79-5.26-2.22-11.31-.24-16.41 2.32-5.1 2.57-10.14 5.8-15.83 6.16-4.96.32-10.34-1.52-14.67.9-3.23 1.8-4.92 5.53-7.9 7.72-2.91 2.15-6.71 2.6-10.33 2.8-3.61.2-7.36.23-10.65 1.74s-6.01 4.99-5.33 8.54l124.95-1.23z" fill="#EBEBEB"/><path d="M98.41 251.83h10.87c1.1 0 2.01.95 2.06 2.15l.43 9.4c.06 1.28-.86 2.36-2.03 2.38l-11.32.16v-14.09h-.01z" fill="#E0E0E0"/><path d="M122.549 263.43c2.17.21 61.47-9.49 66.91-10.88 6.12-1.56 6.47-6.22 6.47-6.22l-89.45 7.86-.37 5.25 10.62-.85c.02 0 3.65 4.63 5.82 4.84z" fill="#F5F5F5"/><path d="M189.458 252.54c.9-.24 1.7-.51 2.44-.82l-3.81.29-71.35 6.57s3.63 4.63 5.8 4.84c2.18.21 61.48-9.49 66.92-10.88z" fill="#EBEBEB"/><path d="M108.969 259.21c-.01-.14 8.12-.99 18.17-1.89 10.05-.9 18.2-1.51 18.21-1.37.01.14-8.12.99-18.17 1.89-10.04.9-18.19 1.51-18.21 1.37z" fill="#E0E0E0"/><path d="M86.897 265.92l-2.46 153.71h20.94l-9.04-153.71h-9.44z" fill="#F5F5F5"/><path d="M86.898 265.92l-.3 18.69 10.29-9.21-.55-9.48h-9.44z" fill="#E0E0E0"/><path d="M74.93 254.57v9.74c0 .89.72 1.62 1.62 1.62h21.87v-14.09l-21.95 1.12c-.87.03-1.54.74-1.54 1.61z" fill="#F5F5F5"/><path d="M96.468 243.76c-1.65-1.42-55.7-27.69-60.94-29.69-5.9-2.25-8.88 1.35-8.88 1.35l77.61 45.15 3.33-4.08-9.17-5.43s-.3-5.88-1.95-7.3z" fill="#F5F5F5"/><path d="M35.529 214.06c-.87-.32-1.69-.56-2.47-.74l3.28 1.96 62.09 35.78s-.3-5.88-1.95-7.3c-1.66-1.42-55.71-27.7-60.95-29.7z" fill="#EBEBEB"/><path d="M75.36 237.77c.02-.03.47.2 1.26.65.88.5 2.01 1.15 3.36 1.92 2.93 1.66 6.81 3.86 11.1 6.3 4.34 2.45 8.24 4.72 11.03 6.43 1.39.85 2.51 1.56 3.27 2.07.76.5 1.18.8 1.16.83-.02.03-.47-.2-1.26-.65-.88-.5-2-1.15-3.36-1.92a7695.5 7695.5 0 01-11.1-6.3c-4.34-2.45-8.24-4.72-11.03-6.43-1.39-.85-2.51-1.56-3.27-2.07-.77-.51-1.18-.8-1.16-.83z" fill="#E0E0E0"/><path d="M85.84 331.89h14.379l.52 8.87h-15.04l.14-8.87zm-.19 12.04h15.279l.13 2.29-15.45.07.04-2.36z" fill="#EBEBEB"/><path d="M103.548 277.12c.41 2.14 26.48 56.28 29.35 61.11 3.23 5.43 7.8 4.45 7.8 4.45l-32.82-83.58-5.14 1.13 3.81 9.95s-3.41 4.8-3 6.94z" fill="#F5F5F5"/><path d="M132.9 338.23c.48.79.97 1.49 1.48 2.11l-1.36-3.57-26.47-66.59s-3.41 4.79-3 6.94c.41 2.14 26.48 56.28 29.35 61.11z" fill="#EBEBEB"/><path d="M102.56 259.79c.02-.05.25.42.61 1.22.39.91.9 2.07 1.5 3.47 1.24 2.94 2.92 7.01 4.71 11.53s3.36 8.64 4.43 11.65c.54 1.5.95 2.72 1.22 3.58.27.85.4 1.33.36 1.34-.03.01-.23-.44-.55-1.27-.36-.92-.82-2.1-1.38-3.51-1.21-3.06-2.8-7.11-4.57-11.58-1.76-4.48-3.36-8.53-4.57-11.59-.54-1.42-.99-2.6-1.35-3.53-.3-.84-.46-1.34-.41-1.31z" fill="#E0E0E0"/><path d="M108.777 257.75c0 1 .83 2.99.24 3.63-.5.54-2.62.43-3.66.43-1.89 0-3.419-1.81-3.419-4.05 0-2.24 1.529-4.05 3.419-4.05 1.04 0 2.371-.18 3.801.3.82.27-.381 2.74-.381 3.74z" fill="#F5F5F5"/><path d="M111.289 257.75c0 2.24-1.53 4.05-3.42 4.05s-3.42-1.81-3.42-4.05c0-2.24 1.53-4.05 3.42-4.05s3.42 1.82 3.42 4.05z" fill="#E0E0E0"/><path d="M104.641 253.7c0-.05.46-.09 1.26-.13.45-.02.93-.03 1.44-.05.28.01.57-.06.91-.02.33.03.68.13 1.01.28l-.03-.01c.01 0 0 0 .03.01l.02.01c1.21.54 2.17 1.96 2.28 3.57.1 1.36-.36 2.69-1.18 3.53-.8.87-1.93 1.21-2.75 1.05h.03c-1.43-.03-2.28-.08-2.28-.14 0-.07.85-.14 2.25-.2h.03c.74.09 1.68-.25 2.37-1.03.7-.76 1.1-1.95 1.01-3.17-.09-1.44-.94-2.69-1.96-3.19l.02.01h-.01l-.03-.01c-.29-.14-.58-.23-.86-.27-.28-.05-.57 0-.86-.02-.51-.02-.99-.04-1.45-.06-.79-.06-1.25-.11-1.25-.16z" fill="#E0E0E0"/><path d="M107.578 261.75c-.01.05-.61.01-1.4-.52-.77-.51-1.7-1.59-1.9-3.06-.18-1.47.43-2.76 1.05-3.44.63-.71 1.19-.91 1.22-.86.05.07-.43.38-.93 1.09-.5.69-.99 1.86-.83 3.15.17 1.29.94 2.29 1.6 2.83.68.55 1.22.73 1.19.81z" fill="#E0E0E0"/><path d="M106.079 261.82c.01.05-.64.18-1.61-.19-.94-.34-2.2-1.3-2.65-2.87-.43-1.57.13-3.05.75-3.83.63-.82 1.25-1.05 1.27-1.01.05.07-.47.41-.97 1.22-.5.78-.93 2.11-.55 3.48.4 1.36 1.46 2.27 2.3 2.67.85.43 1.47.45 1.46.53zm107.628 24.26h6.73c.68 0 1.24.59 1.28 1.33l.26 5.82c.04.8-.54 1.46-1.26 1.47l-7.01.1v-8.72z" fill="#E0E0E0"/><path d="M215.727 300.71c-.07 1.35 7.5 37.79 8.51 41.12 1.13 3.74 4.02 3.84 4.02 3.84l-7.23-55.14-3.26-.09.81 6.55c-.01 0-2.78 2.37-2.85 3.72z" fill="#F5F5F5"/><path d="M224.225 341.83c.17.55.36 1.04.57 1.49l-.28-2.35-5.96-43.98s-2.77 2.37-2.84 3.72c-.07 1.35 7.51 37.79 8.51 41.12z" fill="#EBEBEB"/><path d="M217.974 292.2c.14-.02.92 4.99 1.75 11.18.82 6.19 1.37 11.23 1.23 11.25-.14.02-.92-4.99-1.75-11.18-.83-6.2-1.38-11.23-1.23-11.25z" fill="#E0E0E0"/><path d="M206.579 294.8l-1.52 95.21h12.97l-5.6-95.21h-5.85z" fill="#F5F5F5"/><path d="M206.578 294.8l-.18 11.58 6.37-5.7-.34-5.88h-5.85z" fill="#E0E0E0"/><path d="M199.168 287.77v6.03c0 .55.45 1 1 1h13.54v-8.73l-13.6.69c-.52.04-.94.48-.94 1.01zm28.04-3.72c.84-1.06 15.66-35.2 16.76-38.5 1.24-3.71-1.07-5.46-1.07-5.46l-25.89 49.22 2.61 1.95 3.12-5.82c0 .01 3.63-.33 4.47-1.39z" fill="#F5F5F5"/><path d="M243.968 245.55c.18-.55.3-1.06.39-1.55l-1.12 2.08-20.5 39.37s3.63-.34 4.47-1.4c.83-1.06 15.66-35.2 16.76-38.5z" fill="#EBEBEB"/><path d="M230.346 270.83c.07.04-.5 1.16-1.41 2.96-.98 1.94-2.22 4.36-3.58 7.05-1.4 2.75-2.72 5.22-3.72 6.98-1 1.76-1.67 2.82-1.74 2.78-.07-.04.5-1.16 1.41-2.96.98-1.94 2.22-4.36 3.58-7.05 1.4-2.75 2.71-5.22 3.72-6.98 1.01-1.76 1.68-2.82 1.74-2.78z" fill="#E0E0E0"/><path d="M205.926 335.67h8.9l.33 5.49h-9.32l.09-5.49zm-.117 7.45h9.46l.09 1.42-9.57.04.02-1.46z" fill="#EBEBEB"/><path d="M206.747 289.31c-1.31.31-34.13 17.88-37.04 19.78-3.27 2.14-2.55 4.94-2.55 4.94l50.85-22.53-.84-3.15-6.05 2.62c0 .02-3.06-1.97-4.37-1.66z" fill="#F5F5F5"/><path d="M169.708 309.1c-.48.32-.9.64-1.27.97l2.169-.93 40.51-18.14s-3.06-1.99-4.37-1.67c-1.31.32-34.129 17.86-37.039 19.77z" fill="#EBEBEB"/><path d="M217.447 288.24c.05.05-1.05.63-2.82 1.49-1.78.86-4.25 2.02-7 3.25s-5.26 2.3-7.1 3.02c-1.84.73-3 1.11-3.03 1.05-.03-.07 1.09-.57 2.88-1.38 1.94-.87 4.36-1.96 7.03-3.16 2.75-1.23 5.24-2.33 7.06-3.11 1.82-.78 2.97-1.24 2.98-1.16z" fill="#E0E0E0"/><path d="M220.138 289.75c0 .62.52 1.85.15 2.25-.31.33-1.62.26-2.27.26-1.17 0-2.12-1.12-2.12-2.51 0-1.39.95-2.51 2.12-2.51.65 0 1.47-.11 2.35.19.51.16-.23 1.69-.23 2.32z" fill="#F5F5F5"/><path d="M221.689 289.75c0 1.39-.95 2.51-2.12 2.51-1.17 0-2.12-1.12-2.12-2.51 0-1.39.95-2.51 2.12-2.51 1.17-.01 2.12 1.12 2.12 2.51z" fill="#E0E0E0"/><path d="M217.566 287.23c0-.05.28-.09.78-.13l.89-.05c.17.01.35-.04.58-.02.22.02.44.08.65.17l-.03-.01c.01 0 0 0 .02.01l.02.01c.78.35 1.41 1.25 1.47 2.28.07.87-.24 1.72-.77 2.26-.52.55-1.25.76-1.77.66h.03c-.89-.03-1.42-.09-1.42-.15 0-.07.52-.13 1.39-.19h.03c.44.04.99-.16 1.4-.63.41-.46.65-1.16.6-1.9-.06-.86-.55-1.6-1.15-1.91l.02.01s.02 0 0 0l-.03-.01c-.35-.19-.66-.18-1.03-.19l-.9-.06c-.49-.05-.78-.1-.78-.15z" fill="#E0E0E0"/><path d="M219.388 292.22c-.01.06-.4.05-.91-.27-.5-.31-1.1-.99-1.23-1.94-.12-.95.29-1.76.69-2.19.41-.44.78-.55.81-.49.04.07-.23.28-.52.72-.29.43-.56 1.13-.47 1.89.1.76.55 1.37.94 1.71.4.36.72.49.69.57z" fill="#E0E0E0"/><path d="M218.467 292.27c.01.06-.4.16-1.03-.05-.61-.2-1.42-.81-1.71-1.81-.28-1.01.09-1.95.5-2.44.42-.51.82-.64.85-.58.05.07-.26.3-.54.79-.29.48-.53 1.28-.31 2.09.23.81.86 1.36 1.36 1.62.5.26.88.29.88.38z" fill="#E0E0E0"/><path d="M245.998 67.98c.59-4.28-5.45-7.8-9.98-8.16-2.16-.17-4.41.16-6.46-.56-4.44-1.55-6.21-7.28-10.55-9.11-3.24-1.37-6.97-.15-10.11 1.43-3.14 1.58-6.24 3.57-9.75 3.79-3.05.2-6.37-.94-9.04.55-1.99 1.11-3.03 3.4-4.87 4.76-1.79 1.32-4.13 1.6-6.36 1.72-2.23.12-4.53.14-6.56 1.07-2.03.93-3.7 3.07-3.28 5.26l76.96-.75z" fill="#F5F5F5"/><path d="M437.607 198.77c1.08-.05-9.06 11.94-9.06 11.94h4.29l-3.58 9.41 10.72-12.28h-4.62l2.25-9.07z" fill="#E0E0E0"/><path d="M454.756 209.45c-.01 0-.02-.11-.04-.33-.02-.25-.04-.57-.08-.97-.02-.43-.06-.95-.18-1.57-.1-.62-.2-1.33-.44-2.11-.37-1.58-1.11-3.44-2.28-5.41a20.504 20.504 0 00-5.18-5.75c-2.3-1.72-5.2-3.19-8.55-3.78-3.32-.57-7.07-.46-10.64.9-.91.29-1.76.74-2.64 1.16-.83.5-1.71.97-2.48 1.6-.82.57-1.54 1.27-2.3 1.95-.68.75-1.4 1.49-1.98 2.35-1.2 1.67-2.26 3.53-2.89 5.58a21.63 21.63 0 00-1.04 6.38c.03 2.2.38 4.35 1.04 6.39.64 2.04 1.69 3.9 2.89 5.58.59.86 1.3 1.59 1.98 2.35.75.68 1.47 1.39 2.3 1.95.77.63 1.65 1.09 2.48 1.6.88.42 1.73.87 2.64 1.16 3.57 1.36 7.32 1.46 10.64.9 3.35-.59 6.25-2.05 8.55-3.78a20.2 20.2 0 005.18-5.75c1.17-1.97 1.92-3.83 2.28-5.41.24-.78.34-1.49.44-2.11.12-.61.16-1.14.18-1.57.03-.4.06-.72.08-.97.02-.23.03-.34.04-.34.01 0 .01.11.01.33-.01.25-.01.57-.02.98 0 .43-.03.96-.14 1.58-.09.62-.17 1.35-.39 2.14-.34 1.6-1.07 3.5-2.23 5.51a20.468 20.468 0 01-5.21 5.9c-2.33 1.77-5.28 3.29-8.69 3.91-3.39.6-7.23.51-10.89-.87-.93-.3-1.81-.75-2.71-1.18-.85-.51-1.75-.99-2.55-1.63-.84-.58-1.58-1.3-2.36-2-.7-.77-1.43-1.53-2.04-2.4-1.24-1.71-2.32-3.62-2.97-5.72-.68-2.08-1.04-4.3-1.07-6.55.03-2.25.39-4.47 1.07-6.55.66-2.1 1.73-4 2.97-5.72.6-.88 1.34-1.63 2.04-2.4.77-.7 1.51-1.42 2.36-2 .79-.64 1.69-1.12 2.55-1.63.9-.43 1.78-.89 2.71-1.18 3.66-1.38 7.5-1.47 10.89-.87 3.41.62 6.36 2.13 8.69 3.91 2.33 1.79 4.04 3.89 5.21 5.9 1.16 2.02 1.89 3.91 2.23 5.51.23.79.31 1.51.39 2.14.11.62.13 1.15.14 1.58.01.41.02.73.02.98 0 .21 0 .33-.01.33z" fill="#E0E0E0"/><path d="M420.806 224.91c.09.11-2.66 2.61-6.15 5.59s-6.39 5.3-6.49 5.19c-.09-.11 2.66-2.61 6.15-5.59s6.39-5.3 6.49-5.19z" fill="#E0E0E0"/><path d="M409.307 235.57a.96.96 0 11-1.92 0 .96.96 0 011.92 0z" fill="#E0E0E0"/><path d="M279.789 198.24h16.26c1.64 0 3 1.42 3.08 3.22l.64 14.06c.09 1.92-1.29 3.54-3.04 3.56l-16.84.24-.1-21.08z" fill="#E2349D"/><path opacity=".5" d="M279.789 198.24h16.26c1.64 0 3 1.42 3.08 3.22l.64 14.06c.09 1.92-1.29 3.54-3.04 3.56l-16.84.24-.1-21.08z" fill="#000"/><path d="M284.65 233.59c-.17 3.26 18.12 91.29 20.55 99.33 2.73 9.04 9.71 9.28 9.71 9.28L297.44 209l-7.87-.21 1.95 15.82c-.01-.01-6.7 5.72-6.87 8.98z" fill="#E2349D"/><path opacity=".3" d="M305.2 332.92c.41 1.33.88 2.52 1.38 3.6l-.68-5.67-14.39-106.25s-6.69 5.73-6.86 8.99c-.17 3.26 18.12 91.29 20.55 99.33z" fill="#000"/><path d="M262.561 219.32l-3.67 229.98h31.33l-13.53-229.98h-14.13z" fill="#E2349D"/><path opacity=".5" d="M262.561 219.32l-.44 27.96 15.4-13.77-.83-14.19h-14.13z" fill="#000"/><path d="M244.66 202.33v14.57c0 1.34 1.08 2.42 2.42 2.42h32.72v-21.08l-32.84 1.68a2.41 2.41 0 00-2.3 2.41zm67.72-8.98c2.02-2.56 37.83-85.03 40.49-93 2.99-8.96-2.59-13.18-2.59-13.18l-62.53 118.9 6.31 4.71 7.53-14.05s8.77-.82 10.79-3.38z" fill="#E2349D"/><path opacity=".3" d="M352.872 100.35c.43-1.32.73-2.56.95-3.74l-2.71 5.02-49.51 95.1s8.77-.82 10.79-3.39c2.01-2.56 37.82-85.02 40.48-92.99z" fill="#000"/><path opacity=".4" d="M260.99 318.03h21.5l.79 13.26h-22.51l.22-13.26zm-.289 18.01h22.85l.21 3.43-23.12.1.06-3.53zm19.089-127.26c0 .14-7.86.41-17.56.59s-17.57.22-17.57.07c0-.14 7.86-.41 17.56-.59s17.57-.21 17.57-.07z" fill="#E2349D"/><path d="M262.969 206.06c-3.17.75-82.44 43.18-89.47 47.78-7.9 5.17-6.15 11.94-6.15 11.94l122.83-54.41-2.02-7.61-14.63 6.34c-.01 0-7.39-4.79-10.56-4.04z" fill="#E2349D"/><path opacity=".2" d="M173.497 253.85c-1.15.77-2.16 1.55-3.059 2.34l5.25-2.26 97.839-43.83s-7.38-4.8-10.56-4.04c-3.18.76-82.45 43.19-89.47 47.79z" fill="#000"/><path d="M295.31 207.1c0 1.5 1.25 4.47.36 5.43-.75.81-3.92.64-5.48.64-2.83 0-5.12-2.71-5.12-6.06 0-3.35 2.29-6.06 5.12-6.06 1.56 0 3.54-.27 5.68.45 1.24.41-.56 4.1-.56 5.6z" fill="#E2349D"/><path d="M299.072 207.1c0 3.35-2.29 6.06-5.12 6.06s-5.12-2.71-5.12-6.06c0-3.35 2.29-6.06 5.12-6.06 2.82 0 5.12 2.71 5.12 6.06z" fill="#E2349D"/><path opacity=".5" d="M299.072 207.1c0 3.35-2.29 6.06-5.12 6.06s-5.12-2.71-5.12-6.06c0-3.35 2.29-6.06 5.12-6.06 2.82 0 5.12 2.71 5.12 6.06zm-92.513 32.99l4.63 6.26 23.15-10.25-5.84-5.83-21.94 9.82zm54.793 53.35s1.79 2.92 6.65 5.2c6.24 2.92 11.85-1.59 11.44-8.47l-17.78-17.56-.31 20.83z" fill="#000"/><path d="M155.012 168.78h18.17c1.84 0 3.35 1.58 3.44 3.6l.71 15.71c.1 2.15-1.45 3.95-3.4 3.98l-18.81.26-.11-23.55z" fill="#E2349D"/><path opacity=".5" d="M155.012 168.78h18.17c1.84 0 3.35 1.58 3.44 3.6l.71 15.71c.1 2.15-1.45 3.95-3.4 3.98l-18.81.26-.11-23.55z" fill="#000"/><path d="M179.06 210.12c1.99 3.06 76.43 70.51 83.92 76.17 8.42 6.37 14.88 1.99 14.88 1.99L174.43 179.5l-7.25 4.99 12.17 13.01c-.01 0-2.28 9.57-.29 12.62z" fill="#E2349D"/><path opacity=".3" d="M262.979 286.3c1.25.92 2.45 1.69 3.61 2.34l-4.35-4.67-82.9-86.47s-2.27 9.57-.28 12.63c1.99 3.05 76.44 70.5 83.92 76.17z" fill="#000"/><path d="M135.758 192.34l-4.11 256.96h35.01l-15.12-256.96h-15.78z" fill="#E2349D"/><path opacity=".5" d="M135.758 192.34l-.93 58.27 18.72-24.09-2.01-34.18h-15.78z" fill="#000"/><path d="M115.75 173.35v16.28c0 1.49 1.21 2.7 2.7 2.7h36.56v-23.56l-36.69 1.87c-1.44.09-2.57 1.28-2.57 2.71zm57.782-28.18c-.18-3.64-30.63-99.37-34.25-108.03-4.07-9.74-11.86-9.2-11.86-9.2l34.73 146.03 8.78-.67-3.98-17.36c-.01 0 6.76-7.13 6.58-10.77z" fill="#E2349D"/><path opacity=".3" d="M139.282 37.14c-.61-1.43-1.26-2.69-1.95-3.84l1.41 6.22 28.2 116.42s6.77-7.14 6.59-10.78c-.18-3.63-30.63-99.37-34.25-108.02z" fill="#000"/><path d="M138.3 197.65c-2.43 2.72-48.15 92.17-51.67 100.87-3.96 9.79 1.96 14.88 1.96 14.88l78.07-128.21-6.71-5.7-9.39 15.14s-9.83.31-12.26 3.02z" fill="#E2349D"/><path opacity=".2" d="M86.629 298.52c-.57 1.44-1 2.8-1.32 4.1l3.38-5.41 61.87-102.58s-9.83.3-12.27 3.02c-2.43 2.72-48.14 92.17-51.66 100.87z" fill="#000"/><path d="M172.351 178.69c0 1.68 1.39 4.99.4 6.06-.83.9-4.38.71-6.13.71-3.16 0-5.73-3.03-5.73-6.78 0-3.74 2.56-6.78 5.73-6.78 1.74 0 3.96-.31 6.35.5 1.39.48-.62 4.6-.62 6.29z" fill="#E2349D"/><path d="M176.542 178.69c0 3.74-2.56 6.78-5.73 6.78-3.16 0-5.73-3.03-5.73-6.78 0-3.74 2.56-6.78 5.73-6.78 3.17 0 5.73 3.03 5.73 6.78z" fill="#E2349D"/><path opacity=".5" d="M176.542 178.69c0 3.74-2.56 6.78-5.73 6.78-3.16 0-5.73-3.03-5.73-6.78 0-3.74 2.56-6.78 5.73-6.78 3.17 0 5.73 3.03 5.73 6.78z" fill="#000"/><path opacity=".4" d="M133.992 302.62h24.04l.87 14.83h-25.14l.23-14.83zm-.323 20.13h25.54l.23 3.84-25.83.1.06-3.94zm21.341-142.19c0 .14-8.78.43-19.62.63-10.84.2-19.63.25-19.64.11 0-.14 8.78-.43 19.63-.63 10.83-.2 19.63-.25 19.63-.11z" fill="#E2349D"/><path d="M381.809 239.01h13.62c1.38 0 2.51 1.19 2.58 2.7l.53 11.78c.07 1.61-1.08 2.96-2.55 2.98l-14.1.2-.08-17.66z" fill="#E2349D"/><path opacity=".5" d="M381.809 239.01h13.62c1.38 0 2.51 1.19 2.58 2.7l.53 11.78c.07 1.61-1.08 2.96-2.55 2.98l-14.1.2-.08-17.66z" fill="#000"/><path d="M399.84 270c1.49 2.29 57.3 52.86 62.91 57.1 6.31 4.78 11.15 1.49 11.15 1.49l-77.54-81.55-5.43 3.74 9.12 9.75s-1.7 7.18-.21 9.47z" fill="#E2349D"/><path opacity=".3" d="M462.748 327.1c.93.69 1.83 1.27 2.71 1.75l-3.26-3.5-62.15-64.82s-1.7 7.18-.21 9.47c1.49 2.29 57.3 52.86 62.91 57.1z" fill="#000"/><path d="M367.381 256.67l-3.08 192.63h26.24l-11.33-192.63h-11.83z" fill="#E2349D"/><path opacity=".5" d="M367.38 256.67l-.7 43.68 14.03-18.06-1.5-25.62h-11.83z" fill="#000"/><path d="M352.379 242.43v12.21c0 1.12.91 2.03 2.03 2.03h27.4v-17.66l-27.51 1.4c-1.08.06-1.92.94-1.92 2.02zm43.312-21.13c-.14-2.73-22.96-74.5-25.68-80.99-3.05-7.3-8.89-6.89-8.89-6.89l26.04 109.48 6.58-.5-2.98-13.01c-.01-.01 5.07-5.36 4.93-8.09z" fill="#E2349D"/><path opacity=".3" d="M370.022 140.32c-.46-1.07-.95-2.02-1.46-2.88l1.06 4.67 21.141 87.28s5.08-5.35 4.94-8.08c-.14-2.74-22.971-74.5-25.681-80.99z" fill="#000"/><path d="M369.281 260.65c-1.82 2.04-36.1 69.1-38.73 75.62-2.97 7.34 1.47 11.16 1.47 11.16l58.52-96.11-5.03-4.27-7.04 11.35c.01-.01-7.37.21-9.19 2.25z" fill="#E2349D"/><path opacity=".2" d="M330.552 336.27c-.43 1.08-.75 2.1-.99 3.07l2.53-4.06 46.381-76.9s-7.371.23-9.201 2.26c-1.81 2.05-36.09 69.11-38.72 75.63z" fill="#000"/><path d="M394.81 246.43c0 1.26 1.04 3.74.3 4.55-.62.68-3.29.53-4.59.53-2.37 0-4.29-2.27-4.29-5.08s1.92-5.08 4.29-5.08c1.31 0 2.97-.23 4.76.38 1.03.35-.47 3.44-.47 4.7z" fill="#E2349D"/><path d="M397.951 246.43c0 2.81-1.92 5.08-4.29 5.08s-4.29-2.27-4.29-5.08 1.92-5.08 4.29-5.08 4.29 2.28 4.29 5.08z" fill="#E2349D"/><path opacity=".5" d="M397.951 246.43c0 2.81-1.92 5.08-4.29 5.08s-4.29-2.27-4.29-5.08 1.92-5.08 4.29-5.08 4.29 2.28 4.29 5.08z" fill="#000"/><path opacity=".4" d="M366.049 339.34h18.02l.65 11.12h-18.84l.17-11.12zm-.239 15.09h19.15l.17 2.88-19.36.08.04-2.96zm15.999-106.59c0 .14-6.58.38-14.71.54-8.13.15-14.72.16-14.72.02s6.58-.38 14.71-.54c8.12-.16 14.72-.17 14.72-.02z" fill="#E2349D"/></svg>